{"title":"A.Horrible.Way.To.Die.[2010].DvdRip.XviD-KnÃƒÂ£","uid":6660667,"size":1398321152,"categoryP":"video","categoryS":"movies","magnet":"?xt=urn:btih:8700ea1f51ed01c1689e89bc22c1e84fc0bbb990&amp;dn=A.Horrible.Way.To.Die.%5B2010%5D.DvdRip.XviD-Kn%C3%83%C2%A3&amp;tr=udp%3A%2F%2Ftracker.openbittorrent.com%3A80&amp;tr=udp%3A%2F%2Fopen.demonii.com%3A1337&amp;tr=udp%3A%2F%2Ftracker.coppersurfer.tk%3A6969&amp;tr=udp%3A%2F%2Fexodus.desync.com%3A6969","seeders":0,"leechers":0,"uploader":"Jon.Pson","files":-1,"time":1315501337,"description":"An escaped murderer is in pursuit of his ex-girlfriend, who has fled to start a new life in a small town. \n\n\n\nGeneral\nComplete name                    : Z:\\Unsorted\\A.Horrible.Way.To.Die.[2010].DvdRip.XviD-KnÃƒÂ£\\A.Horrible.Way.To.Die.[2010].DvdRip.XviD-KnÃƒÂ£.avi\nFormat                           : AVI\nFormat/Info                      : Audio Video Interleave\nFile size                        : 1.30 GiB\nDuration                         : 1h 27mn\nOverall bit rate                 : 2 137 Kbps\nWriting application              : VirtualDubMod 1.5.4.1 (build 2178/release)\nWriting library                  : VirtualDubMod build 2178/release\n\nVideo\nID                               : 0\nFormat                           : MPEG-4 Visual\nFormat profile                   : Advanced Simple@L5\nFormat settings, BVOP            : No\nFormat settings, QPel            : No\nFormat settings, GMC             : No warppoints\nFormat settings, Matrix          : Custom\nCodec ID                         : XVID\nCodec ID/Hint                    : XviD\nDuration                         : 1h 27mn\nBit rate                         : 1 682 Kbps\nWidth                            : 720 pixels\nHeight                           : 416 pixels\nDisplay aspect ratio             : 16:9\nFrame rate                       : 23.976 fps\nColor space                      : YUV\nChroma subsampling               : 4:2:0\nBit depth                        : 8 bits\nScan type                        : Progressive\nCompression mode                 : Lossy\nBits/(Pixel*Frame)               : 0.234\nStream size                      : 1.03 GiB (79%)\nWriting library                  : XviD 1.2.1 (UTC 2008-12-04)\n\nAudio\nID                               : 1\nFormat                           : AC-3\nFormat/Info                      : Audio Coding 3\nMode extension                   : CM (complete main)\nCodec ID                         : 2000\nDuration                         : 1h 27mn\nBit rate mode                    : Constant\nBit rate                         : 448 Kbps\nChannel(s)                       : 6 channels\nChannel positions                : Front: L C R, Side: L R, LFE\nSampling rate                    : 48.0 KHz\nBit depth                        : 16 bits\nCompression mode                 : Lossy\nStream size                      : 280 MiB (21%)\nAlignment                        : Split accross interleaves\nInterleave, duration             : 96 ms (2.30 video frames)\nInterleave, preload duration     : 96 ms\nLanguage                         : English\n\n","torrent":{"xt":"urn:btih:8700ea1f51ed01c1689e89bc22c1e84fc0bbb990","amp;dn":"A.Horrible.Way.To.Die.%5B2010%5D.DvdRip.XviD-Kn%C3%83%C2%A3","amp;tr":["udp%3A%2F%2Ftracker.openbittorrent.com%3A80","udp%3A%2F%2Fopen.demonii.com%3A1337","udp%3A%2F%2Ftracker.coppersurfer.tk%3A6969","udp%3A%2F%2Fexodus.desync.com%3A6969"],"infoHash":"8700ea1f51ed01c1689e89bc22c1e84fc0bbb990","infoHashBuffer":{"type":"Buffer","data":[135,0,234,31,81,237,1,193,104,158,137,188,34,193,232,79,192,187,185,144]},"announce":[],"urlList":[]}}